<?xml version="1.0" encoding="UTF-8" standalone="no"?>
<!DOCTYPE svg PUBLIC "-//W3C//DTD SVG 1.1//EN" "http://www.w3.org/Graphics/SVG/1.1/DTD/svg11.dtd">
<svg width="100%" height="100%" viewBox="0 0 842 632" version="1.1" xmlns="http://www.w3.org/2000/svg" xmlnsXlink="http://www.w3.org/1999/xlink" xmlSpace="preserve" xmlnsSerif="http://www.serif.com/" style="fill-rule:evenodd;clip-rule:evenodd;stroke-linejoin:round;stroke-miterlimit:2;">
    <g transform="matrix(1,0,0,1,0.256375,-6.05892)">
        <g id="CarGoSpace" transform="matrix(3.63574,0,0,3.41693,-2507.48,-2066.73)">
            <g id="car-strokes" serifId="car strokes" transform="matrix(0.998001,0.0632006,-0.0632006,0.998001,-79.6455,-37.4204)">
                <g transform="matrix(1,0,0,1,-0.348047,0.479924)">
                    <path d="M846.395,755.373C848.817,756.211 852.044,756.635 855.086,756.782C857.023,756.876 858.87,756.853 860.371,756.796C862.481,756.715 863.897,756.55 863.897,756.55C864.218,756.507 864.495,756.293 864.63,755.982C864.63,755.982 865.158,754.837 865.66,753.679C866.162,752.521 866.639,751.35 866.639,751.35C866.775,751.038 866.748,750.673 866.569,750.384C866.39,750.095 866.083,749.925 865.759,749.934C865.759,749.934 862.812,750.103 859.139,750.279C857.024,750.38 854.679,750.496 852.507,750.539C850.256,750.585 848.211,750.573 846.817,750.409C848.571,750.844 851.414,751.199 854.389,751.442C856.772,751.637 859.222,751.765 861.246,751.836C862.456,751.878 863.511,751.899 864.302,751.91C864.175,752.193 864.039,752.497 863.906,752.802C863.603,753.494 863.309,754.189 863.122,754.637C862.303,754.754 860.602,754.985 858.512,755.209C856.934,755.378 855.144,755.553 853.332,755.643C850.868,755.765 848.395,755.758 846.395,755.373Z" style="fill:rgb(33,46,68);"/>
                </g>
                <path d="M949.24,716.869C949.154,716.929 949.04,716.995 948.906,717.075C948.268,717.457 947.232,717.938 945.893,718.505C942.209,720.062 936.266,722.175 929.85,724.367C925.317,725.916 920.547,727.501 916.157,728.917C910.496,730.743 905.471,732.3 902.39,733.077C901.333,733.344 900.521,733.525 900.011,733.585C900,733.202 900.003,732.515 900.119,731.861C900.888,727.515 904.609,718.962 914.686,714.117C920.73,711.212 929.024,709.625 940.309,711.018C925.768,708.702 916.015,711.526 909.62,715.868C906.946,717.684 904.856,719.772 903.242,721.869C899.796,726.346 898.533,730.892 898.412,733.087C898.377,733.723 898.447,734.203 898.553,734.498C898.668,734.818 898.851,735.012 899.027,735.129C899.149,735.21 899.366,735.295 899.687,735.305C900.13,735.319 901.013,735.188 902.241,734.918C904.812,734.353 909.017,733.2 913.896,731.716C917.485,730.624 921.441,729.357 925.379,728.029C928.132,727.1 930.874,726.136 933.48,725.19C938.19,723.481 942.451,721.824 945.51,720.498C947.263,719.739 948.626,719.081 949.465,718.579C950.034,718.239 950.395,717.934 950.551,717.715C950.871,717.262 950.91,716.764 950.613,716.234C950.401,715.857 949.938,715.414 949.208,715.002C946.336,713.381 938.849,711.589 930.763,711.817C923.874,712.012 916.555,713.659 911.35,718.061C915.611,714.743 921.151,713.241 926.698,712.808C935.688,712.105 944.696,714.227 948.198,716.13C948.564,716.329 948.862,716.524 949.086,716.712C949.139,716.758 949.194,716.816 949.24,716.869Z" style="fill:rgb(33,46,68);"/>
                <g transform="matrix(1,0,0,1,-3.18386,-1)">
                    <path d="M966.184,720.625C966.269,719.103 966.378,716.717 965.528,714.5C964.848,712.727 963.577,711.054 961.24,709.967C959.152,709.009 955.895,707.938 952.043,706.934C950.105,706.429 948.016,705.936 945.852,705.48C942.035,704.675 937.996,703.966 934.17,703.321C929.751,702.576 925.628,701.961 922.454,701.474C925.066,702.117 928.327,702.93 931.873,703.822C934.886,704.58 938.09,705.409 941.265,706.239C944.017,706.957 946.734,707.696 949.28,708.389C953.959,709.663 958.027,710.83 960.445,711.95C962.197,712.749 963.167,713.977 963.686,715.297C964.424,717.173 964.312,719.205 964.254,720.499C964.225,721.065 964.634,721.554 965.167,721.588C965.7,721.623 966.156,721.192 966.184,720.625Z" style="fill:rgb(33,46,68);"/>
                </g>
                <g transform="matrix(1,0,0,1,-4.44543,1.16036)">
                    <path d="M971.321,736.092C971.48,734.161 971.725,731.473 971.715,728.744C971.709,727.022 971.598,725.303 971.334,723.762C971.125,722.543 970.804,721.441 970.38,720.536C969.988,719.698 969.482,719.034 968.906,718.558C968.32,718.103 967.596,717.775 966.754,717.616C965.835,717.442 964.775,717.437 963.645,717.581C962.22,717.764 960.685,718.157 959.177,718.657C956.794,719.448 954.518,720.482 952.881,721.21C954.374,720.828 956.379,720.331 958.492,719.926C959.737,719.687 961.007,719.49 962.228,719.377C963.539,719.256 964.776,719.254 965.838,719.432C966.601,719.56 967.261,719.78 967.746,720.191C968.255,720.588 968.64,721.232 968.979,722.011C969.443,723.077 969.799,724.378 970.085,725.787C970.489,727.769 970.77,729.925 970.964,731.921C971.116,733.485 971.234,734.924 971.321,736.092Z" style="fill:rgb(33,46,68);"/>
                </g>
                <path d="M896.418,761.611C898.862,760.946 901.686,760.187 904.704,759.32C908.633,758.191 912.883,756.903 917.039,755.472C919.347,754.678 921.622,753.837 923.796,752.957C926.151,752.002 928.386,751.002 930.411,749.965C931.905,749.2 933.285,748.414 934.513,747.611C936.028,746.62 937.317,745.604 938.321,744.584C940.512,742.36 941.378,740.07 940.629,737.899C940.371,737.16 939.743,736.588 938.706,736.324C937.686,736.064 936.209,736.064 934.44,736.295C931.888,736.629 928.694,737.404 925.402,738.365C920.686,739.741 915.777,741.486 912.27,742.723C917.447,741.281 925.646,739.021 931.784,738.107C934.129,737.758 936.161,737.599 937.584,737.8C937.992,737.858 938.342,737.949 938.624,738.077C938.839,738.174 939.005,738.283 939.062,738.467C939.552,740.051 938.66,741.566 937.044,743.128C936.098,744.044 934.893,744.949 933.495,745.857C932.31,746.626 930.989,747.396 929.564,748.161C927.596,749.217 925.432,750.265 923.156,751.292C921.034,752.248 918.819,753.189 916.575,754.102C912.511,755.757 908.362,757.317 904.524,758.71C901.569,759.783 898.81,760.766 896.418,761.611Z" style="fill:rgb(33,46,68);"/>
                <path d="M893.562,766.928C893.562,766.928 902.008,764.535 912.035,761.592C916.026,760.42 920.265,759.164 924.318,757.928C927.976,756.813 931.48,755.718 934.518,754.75C935.997,754.279 937.364,753.832 938.583,753.428C942.3,752.194 944.66,751.372 944.66,751.372C945.079,751.236 945.337,750.789 945.261,750.328C945.261,750.328 944.039,743.659 946.224,738.484C947.178,736.224 948.781,734.245 951.466,733.263C954.311,732.214 956.633,732.433 958.465,733.185C962.119,734.685 963.847,738.253 963.847,738.253C963.847,738.253 962.282,734.507 958.638,732.742C956.736,731.821 954.28,731.445 951.197,732.375C948.145,733.305 946.241,735.418 945.066,737.889C942.996,742.242 943.252,747.736 943.443,749.8C942.477,750.093 940.556,750.68 938.014,751.481C936.788,751.867 935.419,752.305 933.945,752.79C930.914,753.786 927.431,754.952 923.81,756.191C919.797,757.565 915.62,759.031 911.692,760.422C901.827,763.914 893.562,766.928 893.562,766.928Z" style="fill:rgb(33,46,68);"/>
                <g transform="matrix(0.047117,-1.0971,1.0971,0.047117,0.819929,1691.02)">
                    <path d="M878.128,754.132C875.502,754.118 873.142,755.211 871.417,756.934C869.739,758.61 868.652,760.889 868.581,763.442C868.534,764.45 868.655,765.423 868.894,766.35C869.278,767.841 869.996,769.193 870.976,770.328C871.838,771.326 872.896,772.15 874.106,772.725C875.319,773.302 876.685,773.598 878.116,773.63C879.545,773.603 880.91,773.31 882.128,772.742C883.354,772.171 884.433,771.349 885.309,770.347C886.919,768.507 887.858,766.074 887.703,763.436C887.647,761.926 887.235,760.515 886.568,759.264C886.107,758.4 885.526,757.614 884.842,756.928C883.121,755.202 880.754,754.116 878.128,754.132ZM878.128,754.144C880.736,754.159 883.103,755.238 884.762,756.997C885.574,757.858 886.214,758.882 886.629,760.01C887.022,761.076 887.202,762.237 887.156,763.443C887.015,765.843 885.935,767.959 884.298,769.481C883.472,770.25 882.491,770.837 881.426,771.252C880.406,771.649 879.301,771.874 878.14,771.852C876.972,771.878 875.86,771.655 874.831,771.26C873.759,770.848 872.767,770.271 871.932,769.504C870.926,768.581 870.113,767.444 869.621,766.138C869.302,765.292 869.116,764.385 869.071,763.436C869.002,760.957 869.913,758.671 871.488,756.995C873.145,755.233 875.518,754.158 878.128,754.144Z" style="fill:rgb(33,46,68);"/>
                </g>
                <g transform="matrix(0.204602,-1.01663,1.01663,0.204602,-1.41526,1479.92)">
                    <path d="M883.921,756.165C884.228,756.407 884.52,756.668 884.795,756.946C885.472,757.629 886.044,758.413 886.506,759.267C887.183,760.518 887.621,761.919 887.694,763.432C887.873,766.082 886.945,768.534 885.33,770.391C884.449,771.404 883.355,772.231 882.116,772.807C880.896,773.375 879.528,773.666 878.097,773.694C876.663,773.66 875.292,773.365 874.076,772.783C872.868,772.206 871.813,771.379 870.954,770.379C869.361,768.525 868.436,766.089 868.608,763.446C868.67,761.945 869.09,760.548 869.748,759.302C870.206,758.435 870.777,757.641 871.457,756.95C873.16,755.221 875.513,754.131 878.128,754.131L878.128,754.131C879.405,754.131 880.618,754.392 881.724,754.86C882.52,755.192 883.259,755.632 883.921,756.165ZM881.724,754.86C880.618,754.398 879.401,754.145 878.128,754.145L878.128,754.145C875.517,754.145 873.145,755.214 871.467,756.959C870.8,757.653 870.237,758.454 869.828,759.336C869.252,760.577 868.984,761.974 869.045,763.433C869.203,765.846 870.309,767.965 871.979,769.478C872.813,770.234 873.802,770.799 874.869,771.205C875.893,771.594 876.998,771.815 878.159,771.788C879.304,771.81 880.394,771.591 881.4,771.203C882.459,770.795 883.432,770.216 884.257,769.458C885.901,767.946 887.003,765.847 887.165,763.447C887.236,761.977 886.977,760.567 886.403,759.316C886,758.44 885.445,757.645 884.784,756.955C884.514,756.673 884.226,756.409 883.921,756.165C883.255,755.637 882.517,755.195 881.724,754.86Z" style="fill:rgb(33,46,68);"/>
                </g>
                <g transform="matrix(1,0,0,1,1,0)">
                    <path d="M823.043,764.826C826.536,768.243 833.108,770.428 840.175,771.771C845.829,772.846 851.791,773.395 856.726,773.64C863.148,773.958 867.826,773.766 867.826,773.766C868.118,773.754 868.388,773.602 868.56,773.352C868.732,773.103 868.788,772.783 868.712,772.482C868.712,772.482 867.808,768.9 867.982,764.649C868.082,762.203 868.525,759.529 869.76,757.191C871.142,754.573 873.498,752.382 877.415,751.402C881.947,750.244 885.006,751.615 887.069,753.813C890.723,757.707 891.334,764.107 891.334,764.107C891.334,764.107 891.038,757.55 887.513,753.368C885.395,750.856 882.141,749.2 877.163,750.187C872.739,751.085 870.02,753.453 868.374,756.32C866.603,759.406 866.093,763.101 866.093,766.231C866.093,768.541 866.371,770.54 866.591,771.754C864.842,771.805 861.233,771.877 856.767,771.797C851.877,771.709 845.965,771.447 840.326,770.676C833.282,769.713 826.673,767.995 823.043,764.826Z" style="fill:rgb(33,46,68);"/>
                </g>
                <g transform="matrix(1,0,0,1,-0.96394,2.23774)">
                    <path d="M821.853,745C821.853,745 824.366,746.221 826.916,747.296C828.168,747.824 829.426,748.308 830.399,748.613C831.721,749.022 833.835,749.585 836.044,750.107C838.836,750.767 841.765,751.381 843.356,751.707C843.039,752.459 842.608,753.491 842.188,754.528C841.646,755.868 841.122,757.217 840.837,757.957C839.605,757.927 836.762,757.843 834.034,757.658C832.157,757.531 830.339,757.371 829.149,757.106C828.154,756.89 826.901,756.409 825.66,755.861C823.077,754.719 820.57,753.3 820.57,753.3C820.57,753.3 822.943,754.989 825.425,756.396C826.66,757.096 827.92,757.716 828.932,758.043C830.135,758.425 831.989,758.78 833.912,759.061C837.545,759.591 841.404,759.876 841.404,759.876C841.773,759.893 842.111,759.669 842.258,759.311C842.258,759.311 843.126,757.345 843.953,755.36C844.78,753.375 845.567,751.371 845.567,751.371C845.683,751.088 845.669,750.763 845.529,750.491C845.389,750.218 845.139,750.029 844.851,749.978C844.851,749.978 843.146,749.703 840.857,749.348C839.037,749.066 836.851,748.734 834.864,748.413C833.185,748.143 831.654,747.894 830.609,747.672C829.634,747.468 828.367,747.106 827.097,746.718C824.469,745.916 821.853,745 821.853,745Z" style="fill:rgb(33,46,68);"/>
                </g>
                <path d="M819.589,738.632C821.877,743.671 829.518,746.547 838.194,748.118C843.414,749.064 849.003,749.533 854.014,749.735C856.917,749.852 859.624,749.874 861.952,749.848C864.544,749.819 866.665,749.733 868.062,749.66C867.624,750.467 867.094,751.481 866.605,752.508C866.051,753.674 865.554,754.859 865.283,755.789C864.983,756.83 864.693,758.379 864.453,759.974C864.115,762.208 863.864,764.529 863.754,765.597C861.568,765.912 853.518,766.941 845.111,766.398C840.729,766.115 836.254,765.418 832.453,763.947C836.204,765.633 840.667,766.594 845.06,767.1C855.002,768.243 864.544,767.091 864.544,767.091C864.881,767.043 865.144,766.759 865.184,766.4C865.184,766.4 865.584,763.269 866.119,760.299C866.387,758.808 866.687,757.358 866.995,756.387C867.259,755.547 867.747,754.485 868.269,753.432C869.365,751.225 870.639,749.074 870.639,749.074C870.831,748.747 870.833,748.332 870.644,748C870.455,747.668 870.108,747.476 869.746,747.503C869.746,747.503 866.843,747.712 862.427,747.842C860.284,747.905 857.785,747.952 855.087,747.945C850.963,747.935 846.378,747.797 841.888,747.374C838.881,747.09 835.92,746.69 833.169,746.109C826.794,744.761 821.567,742.47 819.589,738.632Z" style="fill:rgb(33,46,68);"/>
                <path d="M854.209,724.78C858.428,727.063 864.215,728.86 870.115,730.212C874.37,731.187 878.676,731.938 882.485,732.483C889.609,733.501 894.98,733.826 894.98,733.826C895.378,733.847 895.744,733.6 895.896,733.21C895.896,733.21 896.973,730.489 898.135,727.857C898.696,726.585 899.27,725.331 899.768,724.434C900.256,723.541 900.99,722.407 901.752,721.284C903.334,718.951 905.039,716.671 905.039,716.671C905.229,716.425 905.276,716.086 905.159,715.79C905.043,715.494 904.782,715.29 904.483,715.259C904.483,715.259 894.909,714.482 885.461,712.65C880.946,711.774 876.461,710.673 873.062,709.262C876.396,710.882 880.83,712.282 885.317,713.409C892.487,715.209 899.769,716.338 902.833,716.773C902.158,717.643 901.214,718.882 900.31,720.14C899.479,721.296 898.685,722.471 898.15,723.396C897.617,724.333 896.985,725.636 896.391,726.971C895.551,728.858 894.777,730.8 894.394,731.779C892.758,731.692 888.256,731.424 882.65,730.848C878.853,730.458 874.551,729.939 870.285,729.207C864.363,728.19 858.519,726.79 854.209,724.78Z" style="fill:rgb(33,46,68);"/>
                <g transform="matrix(1,0,0,1,0,-1)">
                    <path d="M821.856,737.826C823.624,736.925 825.251,736.1 826.762,735.366C829.671,733.953 832.13,732.836 834.227,731.926C836.514,730.934 838.373,730.199 839.928,729.626C846.715,727.125 847.723,727.671 853.393,724.484C854.932,723.619 856.421,722.596 857.87,721.473C859.894,719.906 861.841,718.156 863.735,716.4C865.007,715.221 866.254,714.041 867.487,712.914C868.336,712.139 869.177,711.39 870.014,710.684C871.341,709.564 872.654,708.55 873.992,707.753C876.807,706.025 879.865,704.698 883.034,703.661C886.205,702.622 889.48,701.87 892.74,701.34C895.594,700.89 899.123,700.666 902.72,700.609C905.273,700.568 907.857,700.606 910.256,700.686C913.17,700.783 915.81,700.951 917.788,701.064C917.792,701.065 917.795,701.062 917.795,701.058C917.795,701.053 917.792,701.05 917.789,701.05C915.811,700.916 913.171,700.754 910.259,700.595C907.859,700.464 905.274,700.34 902.719,700.275C899.094,700.183 895.531,700.2 892.637,700.508C889.3,700.849 885.932,701.402 882.661,702.28C879.328,703.175 876.105,704.412 873.112,706.054C871.615,706.902 870.123,707.971 868.65,709.211C866.563,710.968 864.492,713.039 862.376,715.128C859.341,718.125 856.234,721.184 852.79,723.355C847.928,726.445 846.614,726.404 841.662,728.366C839.793,729.107 837.414,730.131 834.131,731.689C832.061,732.671 829.635,733.868 826.745,735.328C825.244,736.086 823.614,736.903 821.85,737.813C821.847,737.815 821.845,737.819 821.847,737.823C821.849,737.827 821.853,737.828 821.856,737.826Z" style="fill:rgb(33,46,68);"/>
                </g>
                <path d="M869.624,729.304C869.624,729.304 866.839,729.642 862.901,730.915C862.078,731.181 861.204,731.487 860.298,731.85C859.743,732.073 859.176,732.316 858.603,732.586C857.596,733.059 856.568,733.601 855.532,734.211C853.324,735.511 851.102,737.113 849.004,739.035C851.279,737.413 853.653,736.155 855.953,735.12C857.02,734.639 858.067,734.215 859.079,733.825C859.653,733.603 860.215,733.39 860.762,733.189C861.653,732.861 862.505,732.564 863.308,732.304C867.119,731.07 869.798,730.663 869.798,730.663C870.15,730.615 870.398,730.272 870.35,729.897C870.302,729.521 869.977,729.256 869.624,729.304Z" style="fill:rgb(33,46,68);"/>
            </g>
            <g id="stardust">
                <g transform="matrix(1,0,0,1,-82,4)">
                    <path d="M934,749C934,749 936.54,747.789 940.646,745.398C942.091,744.556 943.713,743.57 945.477,742.415C946.954,741.448 948.519,740.364 950.15,739.173C953.155,736.978 956.37,734.41 959.734,731.664C964.236,727.988 968.951,723.912 973.54,719.606C985.979,707.934 997.462,694.543 1001.17,682.543C1003.96,673.505 1002.44,665.218 993.725,658.968C986.88,654.059 975.508,650.414 958.157,648.709C975.34,650.816 986.557,654.67 993.249,659.702C1001.34,665.788 1002.66,673.609 999.864,682.071C996.003,693.754 984.453,706.587 972.074,717.807C967.456,721.993 962.718,725.947 958.219,729.542C954.854,732.231 951.593,734.675 948.667,736.939C947.077,738.169 945.587,739.343 944.213,740.45C942.571,741.773 941.108,742.991 939.821,744.071C936.156,747.148 934,749 934,749Z" style="fill:rgb(33,46,68);"/>
                </g>
                <g transform="matrix(1,0,0,1,-88,-2)">
                    <path d="M934,749C934,749 936.36,747.991 940.206,745.939C941.555,745.219 943.07,744.371 944.72,743.369C946.1,742.532 947.563,741.588 949.09,740.544C951.895,738.627 954.902,736.366 958.06,733.946C962.266,730.724 966.69,727.139 971.035,723.334C982.504,713.292 993.4,701.694 998.164,690.883C1005.04,675.283 999.422,661.026 964.216,655.526C998.323,661.76 1003.93,675.239 996.923,690.245C992.019,700.746 981.064,711.846 969.63,721.482C965.257,725.166 960.811,728.631 956.608,731.775C953.449,734.139 950.399,736.276 947.669,738.266C946.182,739.35 944.791,740.386 943.511,741.366C941.977,742.541 940.615,743.624 939.417,744.588C935.994,747.341 934,749 934,749Z" style="fill:rgb(33,46,68);"/>
                </g>
                <g transform="matrix(1,0,0,1,-94,-8)">
                    <path d="M934,749C934,749 936.222,748.175 939.877,746.433C941.156,745.824 942.591,745.103 944.159,744.241C945.468,743.521 946.857,742.704 948.31,741.795C950.973,740.127 953.834,738.143 956.849,736.02C960.849,733.203 965.073,730.059 969.258,726.708C980.071,718.047 990.599,707.976 996.163,698.279C1004.73,683.34 1001.83,669.065 970.021,662.226C1000.7,669.717 1003.64,683.233 994.996,697.5C989.306,706.891 978.723,716.505 967.93,724.791C963.72,728.024 959.475,731.048 955.479,733.789C952.464,735.857 949.563,737.717 946.971,739.46C945.557,740.412 944.236,741.324 943.021,742.191C941.563,743.231 940.271,744.194 939.135,745.053C935.879,747.514 934,749 934,749Z" style="fill:rgb(33,46,68);"/>
                </g>
                <g transform="matrix(1,0,0,1,-100,-14)">
                    <path d="M934,749C934,749 936.077,748.424 939.532,747.095C940.738,746.631 942.091,746.076 943.575,745.394C944.812,744.827 946.126,744.173 947.503,743.435C950.024,742.084 952.739,740.446 955.608,738.688C959.4,736.365 963.418,733.75 967.423,730.93C977.571,723.786 987.616,715.31 993.557,706.674C1002.91,693.078 1002.37,678.961 976.065,669C989.311,674.48 995.782,680.77 997.568,687.426C999.178,693.428 996.905,699.676 992.457,705.792C986.406,714.112 976.326,722.145 966.209,728.93C962.187,731.628 958.156,734.123 954.373,736.37C951.508,738.072 948.761,739.584 946.307,741.014C944.966,741.797 943.715,742.55 942.563,743.271C941.178,744.138 939.954,744.944 938.876,745.666C935.777,747.742 934,749 934,749Z" style="fill:rgb(33,46,68);"/>
                </g>
            </g>
            <g transform="matrix(0.354232,0,0,0.354232,341.172,357.204)">
                <path d="M1366.73,709.151C1368.4,709.342 1370.07,709.553 1371.73,709.78C1395.14,712.972 1417.11,720.535 1436.32,732.511C1444.9,737.862 1452.94,744.024 1460.3,750.906C1475.95,765.533 1488.69,783.312 1497.4,803.242C1506,822.906 1510.58,844.687 1510.6,867.5C1510.41,913.43 1491.3,954.914 1460.57,984.407C1431.24,1012.56 1391.34,1029.78 1347.5,1029.5C1303.86,1029.19 1264.34,1011.6 1235.47,983.199C1205.53,953.761 1187.04,912.736 1187.35,867.5C1187.54,840.635 1194.39,815.393 1206.22,793.214C1214.19,778.257 1224.41,764.679 1236.49,752.991C1265.23,725.165 1304.37,707.979 1347.5,707.979C1350.78,707.975 1354.03,708.088 1357.26,708.296C1360.44,708.477 1363.6,708.755 1366.73,709.151ZM1357.26,708.296C1354.03,708.11 1350.77,708.025 1347.5,708.021C1304.38,708.021 1265.2,725.144 1236.51,753.022C1224.47,764.724 1214.25,778.309 1206.41,793.331C1194.85,815.506 1188.46,840.778 1188.65,867.5C1188.95,912.071 1207.66,952.226 1237.53,980.789C1266.1,1008.1 1304.88,1024.81 1347.5,1024.5C1389.92,1024.23 1428.32,1007.13 1456.43,979.58C1485.52,951.085 1503.58,911.376 1503.4,867.5C1503.42,845.805 1498.89,825.183 1490.97,806.36C1485.3,792.883 1477.89,780.319 1468.94,768.986C1465.12,764.138 1461.04,759.496 1456.7,755.106C1449.8,748.129 1442.27,741.786 1434.2,736.14C1415.83,723.291 1394.73,713.772 1371.72,709.883C1370.06,709.603 1368.4,709.359 1366.73,709.151C1363.59,708.791 1360.44,708.497 1357.26,708.296Z" style="fill:rgb(33,46,68);"/>
            </g>
            <g transform="matrix(1.03249,0,0,1.03249,-36.6212,-13.8066)">
                <text x="781.645px" y="650.685px" style="font-family:'BanglaMN', 'Bangla MN';font-size:25.828px;fill:rgb(33,46,68);">CarGo</text>
                <text x="781.645px" y="676.513px" style="font-family:'BanglaMN', 'Bangla MN';font-size:25.828px;fill:rgb(33,46,68);">Space</text>
            </g>
        </g>
    </g>
</svg>
