<?xml version="1.0" encoding="UTF-8" standalone="no"?>
<!DOCTYPE svg PUBLIC "-//W3C//DTD SVG 1.1//EN" "http://www.w3.org/Graphics/SVG/1.1/DTD/svg11.dtd">
<svg width="100%" height="100%" viewBox="0 0 121 61" version="1.1" xmlns="http://www.w3.org/2000/svg" xmlns:xlink="http://www.w3.org/1999/xlink" xml:space="preserve" xmlns:serif="http://www.serif.com/" style="fill-rule:evenodd;clip-rule:evenodd;stroke-linejoin:round;stroke-miterlimit:2;">
    <g transform="matrix(1,0,0,1,-14.5417,-4.71284)">
        <g id="car-strokes" serif:id="car strokes" transform="matrix(0.798865,0.0505899,-0.0505899,0.798865,-600.938,-598.459)">
            <g transform="matrix(1,0,0,1,-0.348047,0.479924)">
                <path d="M846.395,755.373C848.807,756.263 852.022,756.753 855.077,756.952C857.023,757.079 858.878,757.079 860.389,757.039C862.515,756.982 863.941,756.822 863.941,756.822C864.386,756.764 864.768,756.477 864.947,756.065C864.947,756.065 865.485,754.924 865.986,753.765C866.488,752.607 866.952,751.433 866.952,751.433C867.125,751.035 867.083,750.577 866.84,750.218C866.597,749.859 866.188,749.649 865.755,749.662C865.755,749.662 862.813,749.856 859.141,750.079C857.024,750.208 854.686,750.362 852.511,750.441C850.258,750.523 848.217,750.549 846.817,750.409C848.566,750.875 851.397,751.282 854.377,751.572C856.762,751.804 859.211,751.966 861.241,752.062C862.225,752.108 863.107,752.138 863.828,752.157C863.746,752.34 863.662,752.528 863.579,752.716C863.308,753.333 863.048,753.955 862.864,754.4C861.988,754.531 860.405,754.757 858.495,754.987C856.92,755.176 855.141,755.383 853.331,755.505C850.868,755.67 848.407,755.718 846.395,755.373Z"/>
            </g>
            <path d="M948.845,716.85C948.794,716.878 948.74,716.908 948.682,716.942C948.221,717.208 947.569,717.52 946.761,717.877C944.097,719.053 939.784,720.64 934.819,722.368C932.289,723.249 929.59,724.162 926.855,725.08C924.187,725.976 921.484,726.87 918.868,727.731C912.413,729.858 906.476,731.744 902.833,732.702C901.746,732.988 900.88,733.198 900.288,733.298C900.285,732.945 900.301,732.459 900.378,731.99C901.068,727.766 904.612,719.334 914.375,714.415C920.42,711.371 928.794,709.652 940.309,711.018C925.441,708.579 915.541,711.543 909.11,716.027C901.606,721.26 898.778,728.592 898.223,732.189C898.081,733.112 898.098,733.83 898.188,734.27C898.305,734.838 898.6,735.157 898.847,735.321C898.999,735.423 899.269,735.534 899.674,735.548C900.133,735.563 901.048,735.433 902.322,735.156C905.304,734.507 910.475,733.078 916.343,731.261C919.294,730.348 922.42,729.332 925.535,728.279C927.587,727.586 929.633,726.874 931.619,726.16C937.124,724.182 942.176,722.218 945.66,720.695C947.421,719.925 948.788,719.258 949.627,718.75C950.23,718.384 950.609,718.055 950.775,717.82C951.122,717.323 951.183,716.78 950.88,716.202C950.667,715.797 950.194,715.313 949.418,714.87C946.561,713.243 938.981,711.432 930.794,711.7C923.879,711.926 916.541,713.613 911.35,718.061C915.631,714.771 921.171,713.306 926.713,712.902C935.704,712.248 944.693,714.418 948.117,716.333C948.383,716.481 948.653,716.69 948.845,716.85Z"/>
            <g transform="matrix(1,0,0,1,-3.18386,-1)">
                <path d="M966.531,720.628C966.635,718.817 966.752,715.817 965.342,713.274C964.564,711.87 963.339,710.597 961.42,709.703C959.323,708.741 956.057,707.657 952.185,706.66C950.242,706.16 948.145,705.678 945.972,705.237C942.136,704.459 938.08,703.794 934.231,703.188C929.787,702.489 925.646,701.925 922.454,701.474C927.191,702.685 934.059,704.498 940.833,706.353C943.323,707.035 945.789,707.726 948.136,708.379C949.831,708.851 951.463,709.293 952.979,709.732C955.991,710.605 958.548,711.425 960.264,712.215C961.953,712.983 962.875,714.174 963.365,715.447C964.068,717.272 963.961,719.239 963.907,720.496C963.87,721.22 964.429,721.838 965.153,721.874C965.877,721.911 966.494,721.353 966.531,720.628Z"/>
            </g>
            <g transform="matrix(1,0,0,1,-4.44543,1.16036)">
                <path d="M971.321,736.092C971.539,734.159 971.876,731.489 971.937,728.753C971.976,727.024 971.898,725.301 971.659,723.748C971.467,722.506 971.148,721.383 970.722,720.46C970.309,719.565 969.761,718.861 969.146,718.358C968.519,717.883 967.756,717.533 966.864,717.373C965.909,717.203 964.812,717.2 963.642,717.367C962.199,717.574 960.652,717.989 959.132,718.524C956.754,719.363 954.508,720.445 952.881,721.21C954.39,720.857 956.404,720.405 958.535,720.039C959.784,719.824 961.051,719.654 962.273,719.563C963.337,719.483 964.345,719.488 965.253,719.59C966.172,719.694 966.962,719.913 967.506,720.391C967.987,720.77 968.334,721.394 968.659,722.136C969.12,723.191 969.5,724.466 969.804,725.853C970.017,726.829 970.211,727.839 970.381,728.862C970.825,731.535 971.127,734.176 971.321,736.092Z"/>
            </g>
            <path d="M896.418,761.611C898.893,760.965 901.752,760.23 904.81,759.381C908.793,758.276 913.094,757.012 917.298,755.596C919.635,754.809 921.936,753.973 924.131,753.093C926.515,752.136 928.772,751.13 930.809,750.084C932.318,749.308 933.706,748.508 934.936,747.691C936.462,746.676 937.749,745.633 938.739,744.588C940.875,742.332 941.686,740.024 940.914,737.833C940.627,737.034 939.963,736.408 938.849,736.12C937.801,735.849 936.277,735.84 934.447,736.091C931.884,736.442 928.675,737.243 925.368,738.239C920.659,739.657 915.768,741.452 912.27,742.723C917.469,741.326 925.698,739.144 931.845,738.281C934.171,737.954 936.179,737.811 937.576,738.026C937.946,738.083 938.26,738.172 938.512,738.293C938.64,738.355 938.744,738.42 938.777,738.532C939.219,739.994 938.384,741.382 936.932,742.818C936.021,743.719 934.85,744.607 933.489,745.503C932.321,746.272 931.016,747.042 929.606,747.811C927.65,748.878 925.494,749.937 923.224,750.983C920.059,752.44 916.68,753.862 913.308,755.216C907.167,757.682 901.092,759.922 896.418,761.611Z"/>
            <path d="M893.562,766.928C893.562,766.928 902.039,764.615 912.101,761.741C916.106,760.598 920.353,759.362 924.418,758.153C926.536,757.523 928.601,756.896 930.555,756.291C932.766,755.607 934.836,754.96 936.669,754.361C941.537,752.771 944.769,751.626 944.769,751.626C945.335,751.442 945.682,750.873 945.586,750.286C945.586,750.286 944.348,743.809 946.386,738.689C947.294,736.408 948.842,734.386 951.521,733.385C954.37,732.307 956.694,732.531 958.527,733.291C962.117,734.781 963.847,738.253 963.847,738.253C963.847,738.253 962.348,734.554 958.786,732.732C956.855,731.744 954.337,731.318 951.142,732.253C947.958,733.199 945.983,735.409 944.77,737.988C942.794,742.192 942.932,747.406 943.104,749.612C941.8,750.002 939.203,750.792 935.861,751.863C934.024,752.452 931.968,753.14 929.775,753.88C927.837,754.535 925.796,755.236 923.71,755.966C919.707,757.367 915.541,758.853 911.626,760.272C901.787,763.837 893.562,766.928 893.562,766.928Z"/>
            <g transform="matrix(0.047117,-1.0971,1.0971,0.047117,0.819929,1691.02)">
                <path d="M878.128,754.109C875.549,754.098 873.233,755.161 871.508,756.82C869.755,758.505 868.603,760.819 868.513,763.439C868.452,764.487 868.577,765.498 868.821,766.463C869.212,768.011 869.954,769.413 870.975,770.593C872.027,771.809 873.369,772.768 874.908,773.351C875.91,773.73 877,773.906 878.128,773.936C879.545,773.899 880.901,773.617 882.11,773.051C883.346,772.472 884.434,771.642 885.318,770.629C886.994,768.71 887.969,766.179 887.773,763.439C887.712,762.143 887.392,760.925 886.881,759.814C886.36,758.681 885.635,757.669 884.752,756.816C883.031,755.152 880.708,754.096 878.128,754.109L878.128,754.109ZM878.128,754.166C880.682,754.18 883.01,755.208 884.656,756.911C885.488,757.772 886.142,758.806 886.565,759.945C886.968,761.03 887.144,762.212 887.087,763.439C886.914,765.846 885.776,767.93 884.09,769.402C883.27,770.117 882.305,770.64 881.266,771.018C880.287,771.374 879.233,771.575 878.128,771.547C877.021,771.581 875.966,771.385 874.983,771.035C873.936,770.663 872.959,770.152 872.13,769.438C871.101,768.552 870.256,767.454 869.739,766.165C869.399,765.316 869.195,764.401 869.14,763.439C869.053,760.923 869.977,758.591 871.596,756.907C873.238,755.199 875.574,754.178 878.128,754.166L878.128,754.166Z"/>
            </g>
            <g transform="matrix(0.204602,-1.01663,1.01663,0.204602,-1.41526,1479.92)">
                <path d="M878.128,754.108C875.553,754.108 873.221,755.154 871.531,756.842C871.013,757.359 870.57,757.946 870.169,758.563C869.247,759.982 868.631,761.626 868.541,763.439C868.322,766.173 869.283,768.698 870.936,770.632C871.813,771.658 872.892,772.503 874.128,773.095C875.339,773.676 876.703,773.961 878.128,774.006C879.554,773.968 880.92,773.685 882.136,773.113C883.379,772.528 884.475,771.695 885.359,770.67C887.027,768.733 887.98,766.186 887.753,763.439C887.663,761.885 887.187,760.459 886.478,759.185C885.999,758.324 885.42,757.528 884.725,756.842C883.025,755.164 880.703,754.108 878.128,754.108L878.128,754.108ZM878.128,754.168C880.687,754.168 883.016,755.195 884.683,756.885C885.361,757.573 885.943,758.364 886.355,759.248C886.947,760.515 887.193,761.949 887.106,763.439C886.908,765.842 885.744,767.901 884.049,769.361C883.23,770.066 882.272,770.582 881.24,770.956C880.269,771.307 879.224,771.505 878.128,771.476C877.03,771.511 875.984,771.318 875.009,770.974C873.968,770.606 872.995,770.106 872.168,769.399C870.46,767.938 869.305,765.855 869.111,763.439C869.025,761.687 869.404,760.012 870.225,758.597C870.591,757.965 871.06,757.399 871.573,756.885C873.251,755.206 875.569,754.168 878.128,754.168L878.128,754.168Z"/>
            </g>
            <g transform="matrix(1,0,0,1,1,0)">
                <path d="M823.043,764.826C826.49,768.261 832.999,770.497 840.031,771.894C845.699,773.02 851.69,773.612 856.656,773.883C863.119,774.236 867.835,774.048 867.835,774.048C868.229,774.032 868.594,773.839 868.829,773.523C869.065,773.208 869.145,772.803 869.049,772.421C869.049,772.421 868.182,768.95 868.315,764.799C868.391,762.417 868.776,759.803 869.922,757.492C871.24,754.835 873.538,752.582 877.466,751.576C882.024,750.379 885.08,751.805 887.131,754.048C890.674,757.922 891.334,764.107 891.334,764.107C891.334,764.107 891.022,755.792 886.131,751.837C884.037,750.143 881.133,749.242 877.112,750.013C872.47,750.929 869.655,753.442 867.971,756.466C866.545,759.027 865.952,761.982 865.796,764.686C865.636,767.454 865.936,769.953 866.195,771.486C864.33,771.539 860.905,771.607 856.735,771.551C851.832,771.484 845.908,771.258 840.257,770.519C833.253,769.602 826.685,767.946 823.043,764.826Z"/>
            </g>
            <g transform="matrix(1,0,0,1,-0.96394,2.23774)">
                <path d="M821.853,745C821.853,745 824.336,746.258 826.869,747.37C828.119,747.919 829.375,748.419 830.348,748.739C831.948,749.253 834.71,750.008 837.391,750.652C839.512,751.162 841.571,751.61 842.919,751.895C842.614,752.613 842.231,753.528 841.861,754.447C841.363,755.685 840.887,756.932 840.598,757.701C839.038,757.677 835.711,757.604 832.83,757.393C831.42,757.29 830.124,757.171 829.202,756.977C828.205,756.775 826.948,756.313 825.7,755.783C823.095,754.677 820.57,753.3 820.57,753.3C820.57,753.3 822.902,755.018 825.359,756.46C826.596,757.187 827.86,757.827 828.88,758.172C830.084,758.57 831.94,758.95 833.873,759.253C837.511,759.822 841.38,760.136 841.38,760.136C841.892,760.159 842.364,759.859 842.559,759.384C842.559,759.384 843.449,757.426 844.28,755.441C845.111,753.457 845.883,751.448 845.883,751.448C846.029,751.092 846.006,750.688 845.82,750.35C845.634,750.012 845.305,749.777 844.926,749.71C844.926,749.71 842.928,749.401 840.353,749.026C838.185,748.709 835.618,748.347 833.491,748.015C832.383,747.842 831.401,747.692 830.66,747.546C829.681,747.355 828.411,747.01 827.134,746.64C824.485,745.874 821.853,745 821.853,745Z"/>
            </g>
            <path d="M819.589,738.632C821.816,743.669 829.354,746.603 837.965,748.24C843.206,749.237 848.838,749.747 853.893,749.976C856.819,750.109 859.55,750.14 861.898,750.121C864.198,750.102 866.131,750.035 867.523,749.971C867.134,750.703 866.695,751.559 866.287,752.423C865.732,753.6 865.237,754.795 864.969,755.734C864.671,756.784 864.385,758.346 864.153,759.954C863.844,762.085 863.616,764.293 863.507,765.423C861.053,765.782 853.244,766.779 845.09,766.303C840.72,766.048 836.257,765.386 832.453,763.947C836.182,765.658 840.626,766.652 845.01,767.189C854.982,768.409 864.58,767.3 864.58,767.3C865.037,767.236 865.392,766.87 865.443,766.412C865.443,766.412 865.866,763.291 866.417,760.329C866.693,758.847 866.999,757.406 867.31,756.442C867.574,755.615 868.061,754.572 868.578,753.536C869.677,751.337 870.951,749.19 870.951,749.19C871.198,748.77 871.191,748.247 870.933,747.833C870.676,747.419 870.209,747.182 869.723,747.218C869.723,747.218 866.807,747.428 862.377,747.568C860.223,747.636 857.712,747.691 855.003,747.695C850.859,747.7 846.255,747.581 841.75,747.176C838.734,746.904 835.766,746.519 833.012,745.946C826.729,744.64 821.581,742.405 819.589,738.632Z"/>
            <path d="M854.209,724.78C858.395,727.094 864.142,728.938 870.018,730.335C874.275,731.346 878.585,732.13 882.404,732.699C889.552,733.762 894.952,734.102 894.952,734.102C895.506,734.131 896.016,733.801 896.217,733.284C896.217,733.284 897.3,730.576 898.457,727.951C899.015,726.686 899.581,725.435 900.074,724.542C900.553,723.655 901.274,722.53 902.023,721.414C903.589,719.078 905.278,716.79 905.278,716.79C905.521,716.475 905.576,716.053 905.419,715.687C905.262,715.321 904.919,715.068 904.523,715.027C904.523,715.027 894.933,714.307 885.462,712.542C880.949,711.7 876.469,710.642 873.062,709.262C876.373,710.907 880.778,712.342 885.248,713.502C892.108,715.281 899.084,716.436 902.365,716.932C901.704,717.778 900.85,718.892 900.029,720.023C899.187,721.182 898.387,722.361 897.844,723.288C897.304,724.231 896.661,725.544 896.062,726.89C895.279,728.65 894.556,730.46 894.154,731.491C892.328,731.397 887.993,731.143 882.659,730.624C878.854,730.253 874.547,729.765 870.273,729.062C864.36,728.09 858.528,726.748 854.209,724.78Z"/>
            <g transform="matrix(1,0,0,1,0,-1)">
                <path d="M821.867,737.848C823.629,736.944 825.249,736.112 826.758,735.379C829.665,733.968 832.13,732.865 834.231,731.964C836.524,730.981 838.389,730.257 839.95,729.694C846.791,727.223 847.792,727.786 853.515,724.628C855.836,723.341 858.054,721.705 860.186,719.914C862.593,717.894 864.901,715.7 867.147,713.645C868.071,712.8 868.981,711.975 869.883,711.197C871.318,709.96 872.725,708.833 874.169,707.966C876.94,706.236 879.953,704.898 883.08,703.846C886.241,702.783 889.503,702.002 892.758,701.447C895.606,700.979 899.128,700.726 902.722,700.652C905.818,700.588 908.962,700.638 911.765,700.749C914.077,700.84 916.156,700.988 917.786,701.088C917.804,701.089 917.818,701.076 917.819,701.059C917.821,701.042 917.807,701.027 917.79,701.026C916.16,700.922 914.079,700.811 911.768,700.674C908.965,700.507 905.824,700.326 902.724,700.232C899.091,700.123 895.523,700.11 892.62,700.401C889.256,700.718 885.864,701.249 882.562,702.11C879.205,702.986 875.96,704.211 872.935,705.841C871.413,706.695 869.89,707.772 868.394,709.03C866.306,710.785 864.241,712.858 862.14,714.953C859.133,717.951 856.08,721.027 852.668,723.211C851.544,723.94 850.615,724.496 849.783,724.944C846.597,726.659 844.881,726.855 839.584,729.144C837.808,729.912 835.633,730.909 832.86,732.261C831.239,733.052 829.417,733.968 827.341,735.013C825.676,735.852 823.842,736.761 821.839,737.792C821.823,737.8 821.817,737.819 821.825,737.834C821.833,737.849 821.852,737.855 821.867,737.848Z"/>
            </g>
            <path d="M869.534,728.682C869.534,728.682 866.669,728.993 862.637,730.298C861.799,730.57 860.909,730.883 859.994,731.265C859.432,731.5 858.861,731.757 858.288,732.051C857.28,732.567 856.269,733.156 855.25,733.831C853.095,735.257 850.997,736.979 849.004,739.035C850.341,738.207 851.678,737.518 853.03,736.879C854.445,736.21 855.83,735.658 857.191,735.151C857.969,734.861 858.726,734.604 859.465,734.344C859.982,734.163 860.484,733.985 860.974,733.81C862.248,733.354 863.437,732.952 864.512,732.624C867.72,731.648 869.888,731.285 869.888,731.285C870.607,731.187 871.11,730.525 871.013,729.806C870.915,729.088 870.252,728.584 869.534,728.682Z"/>
        </g>
    </g>
</svg>
