<?xml version="1.0" encoding="UTF-8" standalone="no"?>
<!DOCTYPE svg PUBLIC "-//W3C//DTD SVG 1.1//EN" "http://www.w3.org/Graphics/SVG/1.1/DTD/svg11.dtd">
<svg width="100%" height="100%" viewBox="0 0 36 36" version="1.1" xmlns="http://www.w3.org/2000/svg" xmlnsXlink="http://www.w3.org/1999/xlink" xmlSpace="preserve" xmlnsSerif="http://www.serif.com/" style="fill-rule:evenodd;clip-rule:evenodd;stroke-linejoin:round;stroke-miterlimit:2;">
    <g transform="matrix(1,0,0,1,-2688,-3348.99)">
        <g transform="matrix(1,0,0,1,-27,-128)">
            <g id="Delete" transform="matrix(0.390625,-3.79827e-17,-2.67147e-17,0.466492,2457,3274.29)">
                <g transform="matrix(2.56,2.0844e-16,1.64135e-16,2.4,209.92,-1.4966e-13)">
                    <rect x="176" y="186" width="36" height="2" style="fill-rule:nonzero;"/>
                </g>
                <g transform="matrix(2.56,2.0844e-16,8.20676e-17,1.2,209.92,230.4)">
                    <rect x="193" y="192" width="2" height="32" style="fill-rule:nonzero;"/>
                </g>
                <g transform="matrix(2.56,2.0844e-16,8.21637e-17,1.2014,209.92,230.093)">
                    <path d="M202,192.031L201,224.031L199,223.969L200,191.969C200.667,191.99 201.333,192.01 202,192.031Z" style="fill-rule:nonzero;"/>
                </g>
                <g transform="matrix(2.56,2.0844e-16,8.20676e-17,1.2,209.92,230.363)">
                    <path d="M189,223.969L187,224.031L186,192.031L188,191.969C188.333,202.635 188.666,213.302 189,223.969Z" style="fill-rule:nonzero;"/>
                </g>
                <g transform="matrix(2.38933,1.94544e-16,9.84812e-17,1.44,243.029,180.413)">
                    <path d="M181.859,226.133C181.879,226.359 181.931,226.579 182.027,226.787C182.255,227.285 182.703,227.684 183.246,227.874C183.454,227.946 183.671,227.985 183.892,227.998C190.609,228.225 197.335,228.076 204.056,227.999C204.278,227.992 204.496,227.958 204.707,227.89C205.271,227.706 205.738,227.3 205.973,226.787C206.069,226.579 206.121,226.359 206.141,226.134L209.003,187.93L211.14,188.07C210.184,200.839 209.391,213.619 208.269,226.376C208.222,226.79 208.119,227.192 207.943,227.575C207.486,228.571 206.593,229.367 205.505,229.747C205.056,229.904 204.586,229.983 204.107,229.999C197.37,230.075 190.63,230.075 183.893,229.999C183.414,229.983 182.944,229.904 182.495,229.747C181.375,229.356 180.463,228.524 180.018,227.488C179.853,227.102 179.759,226.698 179.723,226.285L176.86,188.07L178.997,187.93C179.951,200.665 180.905,213.399 181.859,226.133Z" style="fill-rule:nonzero;"/>
                </g>
                <g transform="matrix(5.44,4.42936e-16,3.28271e-16,4.8,151.68,367.335)">
                    <path d="M106,15C106,13.895 105.105,14 104,14L100,14C98.895,14 98,13.895 98,15L95,15C94.388,15.001 94.03,15.469 94,16L110,16C110,15.448 109.552,15 109,15L106,15Z"/>
                </g>
            </g>
        </g>
    </g>
</svg>
