<?xml version="1.0" encoding="UTF-8" standalone="no"?>
<!DOCTYPE svg PUBLIC "-//W3C//DTD SVG 1.1//EN" "http://www.w3.org/Graphics/SVG/1.1/DTD/svg11.dtd">
<svg width="100%" height="100%" viewBox="0 0 60 50" version="1.1" xmlns="http://www.w3.org/2000/svg" xmlns:xlink="http://www.w3.org/1999/xlink" xml:space="preserve" xmlns:serif="http://www.serif.com/" style="fill-rule:evenodd;clip-rule:evenodd;stroke-linejoin:round;stroke-miterlimit:2;">
    <g transform="matrix(1,0,0,1,-2694.18,-3130.64)">
        <g id="Delete-Icon" serif:id="Delete Icon" transform="matrix(0.30353,0,0,0.30353,1880.06,2240.5)">
            <g transform="matrix(1.24202,2.28848e-17,-2.84234e-17,1,-640.226,-135.428)">
                <path d="M2747.15,3106L2679.5,3106C2677.02,3106 2675,3108.02 2675,3110.5L2675,3119.5C2675,3121.98 2677.02,3124 2679.5,3124L2829.5,3124C2831.98,3124 2834,3121.98 2834,3119.5L2834,3110.5C2834,3108.02 2831.98,3106 2829.5,3106L2761.85,3106L2761.85,3071.12C2761.85,3069.44 2760.2,3068.07 2758.18,3068.07L2750.82,3068.07C2748.8,3068.07 2747.15,3069.44 2747.15,3071.12L2747.15,3106Z"/>
            </g>
            <g transform="matrix(0.84188,0,0,1,442.78,-36)">
                <path d="M2727.89,3036.78C2729.58,3034.49 2732.29,3033 2735.35,3033C2735.35,3033 2767.66,3038 2783.31,3038C2800.73,3038 2839.85,3033 2839.85,3033C2839.92,3033 2839.99,3033 2840.07,3033C2840.48,3032.99 2840.88,3033.02 2841.27,3033.11C2844.37,3033.59 2846.97,3035.61 2848.25,3038.37C2857.66,3046.36 2867.59,3055.87 2872.71,3059.37C2875.45,3050.29 2878.55,3057.91 2878.94,3059.37C2879.8,3061.79 2883.21,3052.39 2884,3059.37C2891.64,3052.41 2893.09,3062.6 2893.86,3066.87L2894,3066.93C2894,3067.35 2894,3067.75 2893.99,3068.12C2894,3068.24 2894,3068.37 2894,3068.49C2894,3068.49 2892.82,3077.16 2894,3081.39C2894.04,3081.54 2893.8,3081.58 2893.94,3081.85C2894.9,3083.65 2892.98,3090.31 2894,3093.88C2895.29,3098.4 2894,3109.23 2894,3109.23C2894,3114.27 2889.91,3118.37 2884.87,3118.37C2884.87,3118.37 2880.92,3123.16 2879.81,3118.37C2878,3110.56 2876.79,3122.74 2875.68,3118.37C2874.21,3112.53 2872.71,3123.39 2871.69,3118.37C2870.53,3112.63 2870.03,3118.37 2869.03,3118.37L2854.08,3118.37C2852.68,3123.58 2849,3126.18 2845.83,3129.49C2844.08,3131.32 2834.83,3133.37 2828,3133.37C2822.78,3133.37 2817.91,3129.76 2813.78,3131.2C2807.98,3133.24 2803.71,3125.06 2801.92,3118.37L2739.08,3118.37C2737.19,3125.43 2732.81,3131.04 2726.27,3131.54C2722.35,3131.84 2717.82,3133.37 2713,3133.37C2707.35,3133.37 2699.1,3133.65 2697.77,3130.8C2695.34,3125.64 2688.61,3124.67 2686.92,3118.37C2686.92,3118.37 2683.12,3127.1 2681.75,3118.37C2681.73,3111.35 2677.59,3122.96 2677.19,3118.37C2676.44,3111.83 2673.89,3121.22 2672.91,3118.37C2670.8,3112.19 2669.37,3118.37 2669.37,3118.37C2666.85,3118.37 2663.57,3120.37 2662.89,3115.76C2662.52,3113.32 2660,3112.66 2660,3109L2660,3097.03C2660,3097.03 2661.4,3092.27 2660,3085C2661.2,3078.7 2660,3076.73 2660,3076.73C2660,3072.83 2663.39,3062.1 2665.79,3068.07C2666.89,3067.62 2668.1,3067.37 2669.37,3067.37C2669.37,3067.37 2672.32,3060.97 2673.44,3066.5C2674.34,3070.95 2680.18,3057.62 2681.64,3064.74C2682.34,3068.16 2688.78,3055.58 2689.25,3063.08C2689.54,3067.52 2694.73,3061.85 2696.75,3061.37C2696.75,3061.37 2717.36,3044.59 2727.89,3036.78ZM2828.5,3099C2836.5,3099 2843,3105.5 2843,3113.5C2843,3121.5 2836.5,3128 2828.5,3128C2820.5,3128 2814,3121.5 2814,3113.5C2814,3105.5 2820.5,3099 2828.5,3099ZM2713.5,3099C2721.5,3099 2728,3105.5 2728,3113.5C2728,3121.5 2721.5,3128 2713.5,3128C2705.5,3128 2699,3121.5 2699,3113.5C2699,3105.5 2705.5,3099 2713.5,3099ZM2848.53,3061C2851.98,3061 2835.36,3043 2832.41,3043L2800.04,3043C2799.71,3043 2799.44,3043.35 2799.44,3043.79L2799.44,3060.21C2799.44,3060.65 2799.71,3061 2800.04,3061L2848.53,3061ZM2721.05,3061C2716.56,3061 2738.21,3043 2742.05,3043L2784.21,3043C2784.65,3043 2785,3043.35 2785,3043.79L2785,3060.21C2785,3060.65 2784.65,3061 2784.21,3061L2721.05,3061Z"/>
            </g>
            <g transform="matrix(3.29457,0,0,3.29457,-6193.99,-7381.48)">
                <path d="M2707.24,3137.13L2705,3137.13L2708.5,3140.13L2712,3137.13L2709.76,3137.13L2709.76,3132.13L2707.24,3132.13L2707.24,3137.13Z"/>
            </g>
            <g transform="matrix(3.29457,0,0,3.29457,-6091.86,-7381.48)">
                <path d="M2707.24,3137.13L2705,3137.13L2708.5,3140.13L2712,3137.13L2709.76,3137.13L2709.76,3132.13L2707.24,3132.13L2707.24,3137.13Z"/>
            </g>
        </g>
    </g>
</svg>
