<?xml version="1.0" encoding="UTF-8" standalone="no"?>
<!DOCTYPE svg PUBLIC "-//W3C//DTD SVG 1.1//EN" "http://www.w3.org/Graphics/SVG/1.1/DTD/svg11.dtd">
<svg width="100%" height="100%" viewBox="0 0 104 75" version="1.1" xmlns="http://www.w3.org/2000/svg" xmlnsXlink="http://www.w3.org/1999/xlink" xmlSpace="preserve" xmlnsSerif="http://www.serif.com/" style="fill-rule:evenodd;clip-rule:evenodd;stroke-linecap:round;stroke-linejoin:round;stroke-miterlimit:2;">
    <g transform="matrix(1,0,0,1,-2324.5,-3376.17)">
        <g id="headligh" transform="matrix(1,0,0,1,-622,533)">
            <g transform="matrix(1,0,0,0.502893,-5,1417.92)">
                <rect x="2954" y="2850.98" width="30" height="4.023" style="fill:none;stroke:rgb(110,119,127);stroke-width:6.32px;"/>
            </g>
            <g transform="matrix(1,0,0,0.502893,-5,1431.92)">
                <rect x="2954" y="2850.98" width="30" height="4.023" style="fill:none;stroke:rgb(110,119,127);stroke-width:6.32px;"/>
            </g>
            <g transform="matrix(1,0,0,0.502893,-5,1445.92)">
                <rect x="2954" y="2850.98" width="30" height="4.023" style="fill:none;stroke:rgb(110,119,127);stroke-width:6.32px;"/>
            </g>
            <g transform="matrix(1,0,0,0.502893,-5,1459.92)">
                <rect x="2954" y="2850.98" width="30" height="4.023" style="fill:none;stroke:rgb(110,119,127);stroke-width:6.32px;"/>
            </g>
            <g transform="matrix(1,0,0,0.502893,-5,1473.92)">
                <rect x="2954" y="2850.98" width="30" height="4.023" style="fill:none;stroke:rgb(110,119,127);stroke-width:6.32px;"/>
            </g>
            <g transform="matrix(5.55112e-17,1,-1,5.55112e-17,5912.6,-105.831)">
                <path d="M3019,2918C3019,2890.39 3004.45,2868 2986.5,2868C2968.55,2868 2954,2890.39 2954,2918C2954,2918 2961.45,2923 2986.17,2923C3013,2923 3019,2918 3019,2918Z" style="fill:none;stroke:rgb(110,119,127);stroke-width:10px;"/>
            </g>
        </g>
    </g>
</svg>
