<?xml version="1.0" encoding="UTF-8" standalone="no"?>
<!DOCTYPE svg PUBLIC "-//W3C//DTD SVG 1.1//EN" "http://www.w3.org/Graphics/SVG/1.1/DTD/svg11.dtd">
<svg width="100%" height="100%" viewBox="0 0 48 40" version="1.1" xmlns="http://www.w3.org/2000/svg" xmlnsXlink="http://www.w3.org/1999/xlink" xmlSpace="preserve" xmlnsSerif="http://www.serif.com/" style="fill-rule:evenodd;clip-rule:evenodd;stroke-linejoin:round;stroke-miterlimit:2;">
    <g transform="matrix(1,0,0,1,-7829.44,-825.5)">
        <g transform="matrix(0.503937,0,0,0.571731,5702.11,467.537)">
            <g transform="matrix(0.587963,0,0,0.518244,175.061,-423.859)">
                <path d="M6882,2093L6882,2146.35C6882,2154.43 6888.57,2161 6896.65,2161L7028.35,2161C7036.43,2161 7043,2154.43 7043,2146.35L7043,2093L6976,2093L6976,2098.8C6976,2101.67 6973.67,2104 6970.8,2104L6953.2,2104C6950.33,2104 6948,2101.67 6948,2098.8L6948,2093L6882,2093ZM6927.01,2054L6896.65,2054C6888.57,2054 6882,2060.57 6882,2068.66L6882,2084L7043,2084L7043,2068.66C7043,2060.57 7036.43,2054 7028.35,2054L6996.99,2054C6997,2053.78 6997,2053.57 6997,2053.35L6997,2047.65C6997,2035.7 6987.3,2026 6975.35,2026L6948.65,2026C6936.7,2026 6927,2035.7 6927,2047.65L6927,2053.35C6927,2053.57 6927,2053.78 6927.01,2054ZM6985.5,2054L6985.5,2047.07C6985.5,2042.06 6981.44,2038 6976.43,2038L6947.57,2038C6942.56,2038 6938.5,2042.06 6938.5,2047.07L6938.5,2054L6985.5,2054Z" style="fill:rgb(33,46,68);"/>
            </g>
        </g>
    </g>
</svg>
